<svg width="130" height="88" viewBox="0 0 130 88" fill="none" xmlns="http://www.w3.org/2000/svg">
<path d="M1.42695 74.6648L0.669698 11.8128L61.9707 23.1973C63.4955 23.4804 65.0592 23.4824 66.5847 23.2031L128.793 11.8128L128.036 74.6648C127.952 81.6304 122.282 87.2331 115.315 87.2331H14.1475C7.18141 87.2331 1.51087 81.6304 1.42695 74.6648Z" fill="#00DC82"/>
<path d="M41.1527 40.8414L1.37621 70.4533L0.669698 11.8128L61.9707 23.1973C63.4955 23.4804 65.0592 23.4824 66.5847 23.2031L128.793 11.8128L128.095 69.7899L88.6628 39.9818L84.2681 45.7955L127.425 78.4195C125.775 83.5384 120.972 87.2331 115.315 87.2331H14.1475C8.67597 87.2331 4.00371 83.7766 2.21005 78.9181L45.5046 46.6872L41.1527 40.8414Z" fill="#007948"/>
<path d="M127.402 14.9425L74.0039 67.6284C69.0964 72.4705 61.2249 72.5223 56.2541 67.7451L2.94676 16.5148C-1.17656 12.5521 -0.940473 5.88521 3.45282 2.22414C5.17736 0.787023 7.35115 0 9.596 0H42.4689L61.8965 18.7577C63.2738 20.0876 65.4608 20.0749 66.8225 18.7291L85.7746 0H121.271C123.746 0 126.104 1.05028 127.759 2.88959C130.88 6.35723 130.723 11.6659 127.402 14.9425Z" fill="#00DC82"/>
<path d="M109.4 6.06608e-06L70.7006 38.2441C67.9199 40.992 63.4542 41.018 60.6418 38.3025L20.9715 0H42.4689L61.8965 18.7577C63.2738 20.0876 65.4608 20.0749 66.8225 18.7291L85.7746 0L109.4 6.06608e-06Z" fill="#007948"/>
</svg>
